<svg width="40" height="40" viewBox="0 0 40 40" fill="none" xmlns="http://www.w3.org/2000/svg">
<path d="M39.9862 33.2037C40.1379 32.7939 22.7272 19.6475 22.7272 19.6475C20.5475 18.039 19.4011 18.0137 17.2456 19.6475C17.2456 19.6475 -0.139684 32.7833 0.00664368 33.1875L0.00312805 33.1904C0.00492493 33.1939 0.00781555 33.1964 0.0102374 33.1996C0.157654 33.6014 0.372124 33.9754 0.644534 34.3056C0.759612 34.4451 0.898284 34.562 1.03164 34.6835L1.02516 34.6885C1.03578 34.6979 1.04992 34.7023 1.06055 34.7118C1.62578 35.216 2.3386 35.5425 3.13047 35.6357C3.14289 35.6372 3.15289 35.6437 3.16531 35.6452H3.21313C3.33352 35.6567 3.44797 35.6856 3.57125 35.6856H36.4401C38.0586 35.6856 39.4298 34.6678 39.9745 33.241C39.981 33.2304 39.991 33.2227 39.9969 33.2118L39.9862 33.2037Z" fill="#96A9B2"/>
<path d="M20.0104 18.1388L0.0950012 33.0754V11.9153C0.0950012 9.85279 1.76664 8.18115 3.82914 8.18115H36.1916C38.2541 8.18115 39.9258 9.85279 39.9258 11.9153V33.0754L20.0104 18.1388Z" fill="#B9C5C6"/>
<path d="M0.327263 10.617L17.3308 23.9724C19.4769 25.5561 20.6056 25.5811 22.7279 23.9724L39.7047 10.6382C39.4102 10.1043 38.9692 9.68252 38.4649 9.34619L38.6984 9.16322C38.1285 8.64439 37.4 8.30807 36.5913 8.22119L3.43078 8.22236C2.62437 8.30807 1.89468 8.64557 1.32593 9.16322L1.55773 9.34393C1.05929 9.67557 0.622419 10.0901 0.327263 10.617Z" fill="#EDECE6"/>
<path d="M0.321718 10.6448C0.172421 11.0484 17.3148 23.9921 17.3148 23.9921C19.4609 25.5758 20.5897 25.6008 22.712 23.9921C22.712 23.9921 39.8294 11.0588 39.6852 10.6609L39.6887 10.658C39.687 10.6545 39.6841 10.6522 39.6818 10.649C39.5366 10.2533 39.3255 9.88509 39.0573 9.56C38.944 9.42258 38.8074 9.30758 38.6762 9.18789L38.6826 9.18297C38.6721 9.17367 38.6582 9.1693 38.6477 9.16C38.0912 8.66359 37.3894 8.34203 36.6098 8.25023C36.5976 8.24875 36.5877 8.24242 36.5755 8.24094H36.5284C36.4099 8.22961 36.2972 8.20117 36.1758 8.20117H3.81328C2.21969 8.20117 0.86953 9.20336 0.333358 10.6081C0.326952 10.6186 0.317108 10.6262 0.311249 10.6369L0.321718 10.6448Z" fill="#DCE2E2"/>
<path d="M22.7657 12.0817H19.7476C19.62 12.0817 19.4977 12.1323 19.4076 12.2225C19.3174 12.3127 19.2667 12.435 19.2667 12.5625V14.2596C19.2667 14.3871 19.3174 14.5094 19.4076 14.5996C19.4977 14.6897 19.62 14.7404 19.7476 14.7404H22.2019C22.3294 14.7404 22.4517 14.7911 22.5419 14.8812C22.6321 14.9714 22.6827 15.0937 22.6827 15.2213V16.1288C22.6827 16.2563 22.6321 16.3786 22.5419 16.4688C22.4517 16.559 22.3294 16.6096 22.2019 16.6096H19.7476C19.62 16.6096 19.4977 16.6603 19.4076 16.7505C19.3174 16.8406 19.2667 16.963 19.2667 17.0905V18.9325C19.2667 19.0601 19.3174 19.1824 19.4076 19.2725C19.4977 19.3627 19.62 19.4134 19.7476 19.4134H22.9754C23.1029 19.4134 23.2252 19.464 23.3154 19.5542C23.4056 19.6444 23.4563 19.7667 23.4563 19.8942V20.8662C23.4563 20.9937 23.4056 21.116 23.3154 21.2062C23.2252 21.2964 23.1029 21.347 22.9754 21.347H17.0566C16.9291 21.347 16.8068 21.2964 16.7166 21.2062C16.6264 21.116 16.5758 20.9937 16.5758 20.8662V10.661C16.5758 10.5335 16.6264 10.4112 16.7166 10.321C16.8068 10.2308 16.9291 10.1802 17.0566 10.1802H22.9012C23.1941 10.1802 23.4189 10.4397 23.3771 10.7296L23.2417 11.6693C23.2252 11.7838 23.168 11.8885 23.0806 11.9642C22.9932 12.04 22.8814 12.0817 22.7657 12.0817Z" fill="#597B91"/>
</svg>
